<mxfile host="app.diagrams.net" modified="2024-06-27T12:37:13.745Z" agent="Mozilla/5.0 (Macintosh; Intel Mac OS X 10_15_7) AppleWebKit/537.36 (KHTML, like Gecko) Chrome/126.0.0.0 Safari/537.36" etag="lygfBTepQjkDDS8DAq6t" version="24.6.3" type="github">
  <diagram name="Page-1" id="Yt8nRuSeN1MBQB41MqpO">
    <mxGraphModel dx="1083" dy="561" grid="1" gridSize="10" guides="1" tooltips="1" connect="1" arrows="1" fold="1" page="1" pageScale="1" pageWidth="827" pageHeight="1169" math="0" shadow="0">
      <root>
        <mxCell id="0" />
        <mxCell id="1" parent="0" />
        <mxCell id="XqUlQdDZhmHkDGUsW57x-1" style="edgeStyle=orthogonalEdgeStyle;rounded=0;orthogonalLoop=1;jettySize=auto;html=1;entryX=0;entryY=0.5;entryDx=0;entryDy=0;" edge="1" parent="1" source="XqUlQdDZhmHkDGUsW57x-2" target="XqUlQdDZhmHkDGUsW57x-7">
          <mxGeometry relative="1" as="geometry" />
        </mxCell>
        <mxCell id="XqUlQdDZhmHkDGUsW57x-2" value="Blessed is the man" style="rounded=0;whiteSpace=wrap;html=1;" vertex="1" parent="1">
          <mxGeometry x="130" y="120" width="120" height="60" as="geometry" />
        </mxCell>
        <mxCell id="XqUlQdDZhmHkDGUsW57x-3" style="edgeStyle=orthogonalEdgeStyle;rounded=0;orthogonalLoop=1;jettySize=auto;html=1;entryX=0;entryY=0.5;entryDx=0;entryDy=0;" edge="1" parent="1" source="XqUlQdDZhmHkDGUsW57x-7" target="XqUlQdDZhmHkDGUsW57x-9">
          <mxGeometry relative="1" as="geometry" />
        </mxCell>
        <mxCell id="XqUlQdDZhmHkDGUsW57x-4" style="edgeStyle=orthogonalEdgeStyle;rounded=0;orthogonalLoop=1;jettySize=auto;html=1;entryX=0;entryY=0.5;entryDx=0;entryDy=0;" edge="1" parent="1" source="XqUlQdDZhmHkDGUsW57x-7" target="XqUlQdDZhmHkDGUsW57x-11">
          <mxGeometry relative="1" as="geometry" />
        </mxCell>
        <mxCell id="XqUlQdDZhmHkDGUsW57x-5" style="edgeStyle=orthogonalEdgeStyle;rounded=0;orthogonalLoop=1;jettySize=auto;html=1;entryX=0;entryY=0.5;entryDx=0;entryDy=0;" edge="1" parent="1" source="XqUlQdDZhmHkDGUsW57x-7" target="XqUlQdDZhmHkDGUsW57x-13">
          <mxGeometry relative="1" as="geometry" />
        </mxCell>
        <mxCell id="XqUlQdDZhmHkDGUsW57x-6" style="edgeStyle=orthogonalEdgeStyle;rounded=0;orthogonalLoop=1;jettySize=auto;html=1;entryX=0;entryY=0.5;entryDx=0;entryDy=0;" edge="1" parent="1" source="XqUlQdDZhmHkDGUsW57x-7" target="XqUlQdDZhmHkDGUsW57x-15">
          <mxGeometry relative="1" as="geometry" />
        </mxCell>
        <mxCell id="XqUlQdDZhmHkDGUsW57x-7" value="Who&amp;nbsp;" style="rounded=0;whiteSpace=wrap;html=1;" vertex="1" parent="1">
          <mxGeometry x="310" y="120" width="90" height="60" as="geometry" />
        </mxCell>
        <mxCell id="XqUlQdDZhmHkDGUsW57x-8" style="edgeStyle=orthogonalEdgeStyle;rounded=0;orthogonalLoop=1;jettySize=auto;html=1;entryX=0;entryY=0.5;entryDx=0;entryDy=0;" edge="1" parent="1" source="XqUlQdDZhmHkDGUsW57x-9" target="XqUlQdDZhmHkDGUsW57x-19">
          <mxGeometry relative="1" as="geometry" />
        </mxCell>
        <mxCell id="XqUlQdDZhmHkDGUsW57x-9" value="walked not in the counsel of the ungodly" style="rounded=0;whiteSpace=wrap;html=1;" vertex="1" parent="1">
          <mxGeometry x="460" y="120" width="150" height="60" as="geometry" />
        </mxCell>
        <mxCell id="XqUlQdDZhmHkDGUsW57x-10" style="edgeStyle=orthogonalEdgeStyle;rounded=0;orthogonalLoop=1;jettySize=auto;html=1;entryX=0;entryY=0.5;entryDx=0;entryDy=0;" edge="1" parent="1" source="XqUlQdDZhmHkDGUsW57x-11" target="XqUlQdDZhmHkDGUsW57x-19">
          <mxGeometry relative="1" as="geometry" />
        </mxCell>
        <mxCell id="XqUlQdDZhmHkDGUsW57x-11" value="not stand in the way of sinners" style="rounded=0;whiteSpace=wrap;html=1;" vertex="1" parent="1">
          <mxGeometry x="460" y="220" width="150" height="60" as="geometry" />
        </mxCell>
        <mxCell id="XqUlQdDZhmHkDGUsW57x-12" style="edgeStyle=orthogonalEdgeStyle;rounded=0;orthogonalLoop=1;jettySize=auto;html=1;entryX=0;entryY=0.5;entryDx=0;entryDy=0;" edge="1" parent="1" source="XqUlQdDZhmHkDGUsW57x-13" target="XqUlQdDZhmHkDGUsW57x-19">
          <mxGeometry relative="1" as="geometry" />
        </mxCell>
        <mxCell id="XqUlQdDZhmHkDGUsW57x-13" value="not sit in the seat of scoffers" style="rounded=0;whiteSpace=wrap;html=1;" vertex="1" parent="1">
          <mxGeometry x="460" y="310" width="150" height="60" as="geometry" />
        </mxCell>
        <mxCell id="XqUlQdDZhmHkDGUsW57x-14" style="edgeStyle=orthogonalEdgeStyle;rounded=0;orthogonalLoop=1;jettySize=auto;html=1;entryX=0;entryY=0.5;entryDx=0;entryDy=0;" edge="1" parent="1" source="XqUlQdDZhmHkDGUsW57x-15" target="XqUlQdDZhmHkDGUsW57x-17">
          <mxGeometry relative="1" as="geometry" />
        </mxCell>
        <mxCell id="XqUlQdDZhmHkDGUsW57x-15" value="delight in the law of the lord and on his law he meditates day and night" style="rounded=0;whiteSpace=wrap;html=1;" vertex="1" parent="1">
          <mxGeometry x="460" y="400" width="150" height="100" as="geometry" />
        </mxCell>
        <mxCell id="XqUlQdDZhmHkDGUsW57x-16" style="edgeStyle=orthogonalEdgeStyle;rounded=0;orthogonalLoop=1;jettySize=auto;html=1;" edge="1" parent="1" source="XqUlQdDZhmHkDGUsW57x-17" target="XqUlQdDZhmHkDGUsW57x-22">
          <mxGeometry relative="1" as="geometry" />
        </mxCell>
        <mxCell id="XqUlQdDZhmHkDGUsW57x-17" value="like a tree planted by streams of water that yields its fruits in its season whose leaf does not wither and in all that he does he prospers" style="rounded=0;whiteSpace=wrap;html=1;" vertex="1" parent="1">
          <mxGeometry x="680" y="400" width="210" height="100" as="geometry" />
        </mxCell>
        <mxCell id="XqUlQdDZhmHkDGUsW57x-18" style="edgeStyle=orthogonalEdgeStyle;rounded=0;orthogonalLoop=1;jettySize=auto;html=1;entryX=0;entryY=0.5;entryDx=0;entryDy=0;" edge="1" parent="1" source="XqUlQdDZhmHkDGUsW57x-19" target="XqUlQdDZhmHkDGUsW57x-21">
          <mxGeometry relative="1" as="geometry" />
        </mxCell>
        <mxCell id="XqUlQdDZhmHkDGUsW57x-19" value="Wicked are like chaff that the wind drives away" style="rounded=0;whiteSpace=wrap;html=1;" vertex="1" parent="1">
          <mxGeometry x="675" y="205" width="215" height="90" as="geometry" />
        </mxCell>
        <mxCell id="XqUlQdDZhmHkDGUsW57x-20" style="edgeStyle=orthogonalEdgeStyle;rounded=0;orthogonalLoop=1;jettySize=auto;html=1;entryX=0;entryY=0.5;entryDx=0;entryDy=0;" edge="1" parent="1" source="XqUlQdDZhmHkDGUsW57x-21" target="XqUlQdDZhmHkDGUsW57x-23">
          <mxGeometry relative="1" as="geometry" />
        </mxCell>
        <mxCell id="XqUlQdDZhmHkDGUsW57x-21" value="Wicked will not stand in the judgment nor sinners in the congregation of the righteous" style="rounded=0;whiteSpace=wrap;html=1;" vertex="1" parent="1">
          <mxGeometry x="930" y="205" width="215" height="90" as="geometry" />
        </mxCell>
        <mxCell id="XqUlQdDZhmHkDGUsW57x-22" value="Lord knows the way of the righteous" style="rounded=0;whiteSpace=wrap;html=1;" vertex="1" parent="1">
          <mxGeometry x="930" y="420" width="120" height="60" as="geometry" />
        </mxCell>
        <mxCell id="XqUlQdDZhmHkDGUsW57x-23" value="way of wicked will perish" style="rounded=0;whiteSpace=wrap;html=1;" vertex="1" parent="1">
          <mxGeometry x="1200" y="220" width="120" height="60" as="geometry" />
        </mxCell>
      </root>
    </mxGraphModel>
  </diagram>
</mxfile>
